<?xml version="1.0" encoding="utf-8"?>
<!-- Generator: Adobe Illustrator 17.1.0, SVG Export Plug-In . SVG Version: 6.00 Build 0)  -->
<!DOCTYPE svg PUBLIC "-//W3C//DTD SVG 1.1//EN" "http://www.w3.org/Graphics/SVG/1.1/DTD/svg11.dtd">
<svg version="1.1" id="Layer_1" xmlns="http://www.w3.org/2000/svg" xmlns:xlink="http://www.w3.org/1999/xlink" x="0px" y="0px"
	 viewBox="0 0 39 15" enable-background="new 0 0 39 15" xml:space="preserve">
<path fill-rule="evenodd" clip-rule="evenodd" fill="#FFFFFF" d="M29.227,11.021c-0.137-0.971-0.301-1.922-0.522-2.823
	c-0.01-0.054-0.021-0.107-0.035-0.16c-0.007-0.029-0.012-0.06-0.02-0.088h-0.012C28,6.001,24.159,4.501,19.503,4.501
	c-4.656,0-8.497,1.499-9.136,3.448h-0.012c-0.008,0.029-0.013,0.061-0.02,0.091c-0.014,0.051-0.025,0.103-0.034,0.155
	c-0.221,0.902-0.386,1.854-0.523,2.826L0,11.694C0.15,9.38,0.561,7.157,1.228,5.078C5.158,2.018,11.87,0,19.496,0
	c7.633,0,14.349,2.022,18.278,5.086C38.44,7.163,38.85,9.384,39,11.694L29.227,11.021z M25.63,15H13.361
	c-2.268,0-4.243-1.398-5.305-3.472h22.878C29.873,13.602,27.897,15,25.63,15z"/>
</svg>
