<?xml version="1.0" encoding="utf-8"?>
<!-- Generator: Adobe Illustrator 17.1.0, SVG Export Plug-In . SVG Version: 6.00 Build 0)  -->
<!DOCTYPE svg PUBLIC "-//W3C//DTD SVG 1.1//EN" "http://www.w3.org/Graphics/SVG/1.1/DTD/svg11.dtd">
<svg version="1.1" id="Layer_1" xmlns="http://www.w3.org/2000/svg" xmlns:xlink="http://www.w3.org/1999/xlink" x="0px" y="0px"
	 viewBox="0 0 17 17" enable-background="new 0 0 17 17" xml:space="preserve">
<path fill-rule="evenodd" clip-rule="evenodd" fill="#FFFFFF" d="M17,15.205c-0.853,0.736-1.777,1.34-2.75,1.795
	c-2.585-0.478-5.899-2.401-8.874-5.377C2.402,8.65,0.48,5.339,0,2.754C0.455,1.779,1.06,0.854,1.797,0l3.581,4.045
	C5.071,4.467,4.784,4.893,4.546,5.326l0.016,0.016c-0.419,0.92,0.55,2.922,2.364,4.737c1.814,1.814,3.816,2.784,4.736,2.365
	l0.016,0.016c0.432-0.238,0.859-0.525,1.281-0.832L17,15.205z"/>
</svg>
