<?xml version="1.0" encoding="utf-8"?>
<!-- Generator: Adobe Illustrator 17.1.0, SVG Export Plug-In . SVG Version: 6.00 Build 0)  -->
<!DOCTYPE svg PUBLIC "-//W3C//DTD SVG 1.1//EN" "http://www.w3.org/Graphics/SVG/1.1/DTD/svg11.dtd">
<svg version="1.1" id="Layer_1" xmlns="http://www.w3.org/2000/svg" xmlns:xlink="http://www.w3.org/1999/xlink" x="0px" y="0px"
	 viewBox="0 0 22 22" enable-background="new 0 0 22 22" xml:space="preserve">
<path fill-rule="evenodd" clip-rule="evenodd" fill="rgba(255,255,255,0.4)" d="M11.019,0C4.954,0,0.037,4.919,0.037,10.986
	c0,2.258,0.685,4.354,1.852,6.099L0,22l4.908-1.889c1.747,1.173,3.848,1.86,6.111,1.86C17.083,21.972,22,17.053,22,10.986
	S17.083,0,11.019,0z M6.346,10.753c0,0.554-0.421,0.975-1.042,0.975s-0.998-0.421-0.998-0.975c0-0.266,0.067-0.51,0.311-1.042
	l1.286-2.794h0.843l-0.798,3.06C6.191,10.132,6.346,10.42,6.346,10.753z M9.782,10.753c0,0.554-0.421,0.975-1.042,0.975
	c-0.621,0-0.998-0.421-0.998-0.975c0-0.266,0.066-0.51,0.31-1.042l1.286-2.794h0.842l-0.798,3.06
	C9.627,10.132,9.782,10.42,9.782,10.753z M13.883,12.201l-1.286,2.794h-0.842l0.798-3.061c-0.244-0.155-0.399-0.444-0.399-0.776
	c0-0.554,0.421-0.976,1.042-0.976s0.997,0.421,0.997,0.976C14.193,11.424,14.127,11.668,13.883,12.201z M17.319,12.201l-1.286,2.794
	h-0.842l0.798-3.061c-0.244-0.155-0.399-0.444-0.399-0.776c0-0.554,0.421-0.976,1.042-0.976c0.621,0,0.998,0.421,0.998,0.976
	C17.629,11.424,17.563,11.668,17.319,12.201z"/>
</svg>
